<mxfile host="app.diagrams.net" agent="Mozilla/5.0 (Windows NT 10.0; Win64; x64) AppleWebKit/537.36 (KHTML, like Gecko) Chrome/137.0.0.0 Safari/537.36" version="27.1.6" pages="5">
  <diagram name="Base" id="vjJFwIeug1iZqRmjQmJM">
    <mxGraphModel dx="1665" dy="743" grid="0" gridSize="10" guides="1" tooltips="1" connect="1" arrows="1" fold="1" page="1" pageScale="1" pageWidth="850" pageHeight="1100" math="0" shadow="0">
      <root>
        <mxCell id="0" />
        <mxCell id="1" parent="0" />
        <mxCell id="4hZw_1Td1rZY4-D2AG_E-1" value="" style="whiteSpace=wrap;html=1;aspect=fixed;" vertex="1" parent="1">
          <mxGeometry x="70" y="170" width="330" height="330" as="geometry" />
        </mxCell>
        <mxCell id="4hZw_1Td1rZY4-D2AG_E-2" value="Region" style="text;html=1;align=center;verticalAlign=middle;resizable=0;points=[];autosize=1;strokeColor=none;fillColor=none;" vertex="1" parent="1">
          <mxGeometry x="63" y="141" width="56" height="26" as="geometry" />
        </mxCell>
        <mxCell id="4hZw_1Td1rZY4-D2AG_E-3" value="" style="whiteSpace=wrap;html=1;aspect=fixed;" vertex="1" parent="1">
          <mxGeometry x="88" y="202" width="287" height="287" as="geometry" />
        </mxCell>
        <mxCell id="4hZw_1Td1rZY4-D2AG_E-4" value="VPC" style="text;html=1;align=center;verticalAlign=middle;resizable=0;points=[];autosize=1;strokeColor=none;fillColor=none;" vertex="1" parent="1">
          <mxGeometry x="85" y="173" width="43" height="26" as="geometry" />
        </mxCell>
        <mxCell id="4hZw_1Td1rZY4-D2AG_E-5" value="" style="whiteSpace=wrap;html=1;aspect=fixed;" vertex="1" parent="1">
          <mxGeometry x="105" y="242" width="236" height="236" as="geometry" />
        </mxCell>
        <mxCell id="4hZw_1Td1rZY4-D2AG_E-6" value="AZ" style="text;html=1;align=center;verticalAlign=middle;resizable=0;points=[];autosize=1;strokeColor=none;fillColor=none;" vertex="1" parent="1">
          <mxGeometry x="110" y="211" width="33" height="26" as="geometry" />
        </mxCell>
        <mxCell id="4hZw_1Td1rZY4-D2AG_E-7" value="" style="whiteSpace=wrap;html=1;aspect=fixed;" vertex="1" parent="1">
          <mxGeometry x="124" y="282" width="88" height="88" as="geometry" />
        </mxCell>
        <mxCell id="4hZw_1Td1rZY4-D2AG_E-8" value="Public Subnet" style="text;html=1;align=center;verticalAlign=middle;resizable=0;points=[];autosize=1;strokeColor=none;fillColor=none;" vertex="1" parent="1">
          <mxGeometry x="122" y="313" width="92" height="26" as="geometry" />
        </mxCell>
        <mxCell id="4hZw_1Td1rZY4-D2AG_E-9" value="" style="whiteSpace=wrap;html=1;aspect=fixed;" vertex="1" parent="1">
          <mxGeometry x="230" y="379" width="88" height="88" as="geometry" />
        </mxCell>
        <mxCell id="4hZw_1Td1rZY4-D2AG_E-10" value="Private Subnet" style="text;html=1;align=center;verticalAlign=middle;resizable=0;points=[];autosize=1;strokeColor=none;fillColor=none;" vertex="1" parent="1">
          <mxGeometry x="224" y="413" width="97" height="26" as="geometry" />
        </mxCell>
        <mxCell id="4hZw_1Td1rZY4-D2AG_E-20" value="" style="edgeStyle=orthogonalEdgeStyle;rounded=0;orthogonalLoop=1;jettySize=auto;html=1;" edge="1" parent="1" source="4hZw_1Td1rZY4-D2AG_E-11" target="4hZw_1Td1rZY4-D2AG_E-15">
          <mxGeometry relative="1" as="geometry" />
        </mxCell>
        <mxCell id="4hZw_1Td1rZY4-D2AG_E-11" value="Local Zones" style="whiteSpace=wrap;html=1;aspect=fixed;" vertex="1" parent="1">
          <mxGeometry x="461" y="188" width="80" height="80" as="geometry" />
        </mxCell>
        <mxCell id="4hZw_1Td1rZY4-D2AG_E-12" value="Local Zones" style="whiteSpace=wrap;html=1;aspect=fixed;" vertex="1" parent="1">
          <mxGeometry x="463" y="305.5" width="80" height="80" as="geometry" />
        </mxCell>
        <mxCell id="4hZw_1Td1rZY4-D2AG_E-13" value="" style="endArrow=classic;html=1;rounded=0;exitX=1.003;exitY=0.53;exitDx=0;exitDy=0;exitPerimeter=0;entryX=0;entryY=0.5;entryDx=0;entryDy=0;" edge="1" parent="1" source="4hZw_1Td1rZY4-D2AG_E-1" target="4hZw_1Td1rZY4-D2AG_E-12">
          <mxGeometry width="50" height="50" relative="1" as="geometry">
            <mxPoint x="400" y="364" as="sourcePoint" />
            <mxPoint x="450" y="314" as="targetPoint" />
          </mxGeometry>
        </mxCell>
        <mxCell id="4hZw_1Td1rZY4-D2AG_E-14" value="" style="endArrow=classic;html=1;rounded=0;entryX=0;entryY=0.5;entryDx=0;entryDy=0;" edge="1" parent="1" target="4hZw_1Td1rZY4-D2AG_E-11">
          <mxGeometry width="50" height="50" relative="1" as="geometry">
            <mxPoint x="400" y="228" as="sourcePoint" />
            <mxPoint x="450" y="178" as="targetPoint" />
          </mxGeometry>
        </mxCell>
        <mxCell id="4hZw_1Td1rZY4-D2AG_E-15" value="Local Zones are extention of aws Region&lt;div&gt;a. Local Zones allow to place services&lt;/div&gt;&lt;div&gt;&amp;nbsp;near end-users&lt;/div&gt;" style="text;html=1;align=center;verticalAlign=middle;resizable=0;points=[];autosize=1;strokeColor=none;fillColor=none;" vertex="1" parent="1">
          <mxGeometry x="592" y="200.5" width="235" height="55" as="geometry" />
        </mxCell>
        <mxCell id="4hZw_1Td1rZY4-D2AG_E-16" value="" style="endArrow=classic;html=1;rounded=0;exitX=1.003;exitY=0.53;exitDx=0;exitDy=0;exitPerimeter=0;entryX=0;entryY=0.5;entryDx=0;entryDy=0;" edge="1" parent="1">
          <mxGeometry width="50" height="50" relative="1" as="geometry">
            <mxPoint x="401" y="443" as="sourcePoint" />
            <mxPoint x="463" y="444" as="targetPoint" />
          </mxGeometry>
        </mxCell>
        <mxCell id="4hZw_1Td1rZY4-D2AG_E-21" value="" style="edgeStyle=orthogonalEdgeStyle;rounded=0;orthogonalLoop=1;jettySize=auto;html=1;" edge="1" parent="1" source="4hZw_1Td1rZY4-D2AG_E-18" target="4hZw_1Td1rZY4-D2AG_E-19">
          <mxGeometry relative="1" as="geometry" />
        </mxCell>
        <mxCell id="4hZw_1Td1rZY4-D2AG_E-18" value="Edge&amp;nbsp;&lt;div&gt;Location&lt;/div&gt;" style="whiteSpace=wrap;html=1;aspect=fixed;" vertex="1" parent="1">
          <mxGeometry x="461" y="404" width="80" height="80" as="geometry" />
        </mxCell>
        <mxCell id="4hZw_1Td1rZY4-D2AG_E-19" value="Edge Location supports services&lt;div&gt;&amp;nbsp;like cloudFront, route53, AWS WAF&lt;/div&gt;" style="text;html=1;align=center;verticalAlign=middle;resizable=0;points=[];autosize=1;strokeColor=none;fillColor=none;" vertex="1" parent="1">
          <mxGeometry x="623" y="423.5" width="209" height="41" as="geometry" />
        </mxCell>
        <mxCell id="4hZw_1Td1rZY4-D2AG_E-22" value="AWS Access" style="whiteSpace=wrap;html=1;aspect=fixed;" vertex="1" parent="1">
          <mxGeometry x="385" y="768" width="80" height="80" as="geometry" />
        </mxCell>
        <mxCell id="4hZw_1Td1rZY4-D2AG_E-24" value="" style="edgeStyle=orthogonalEdgeStyle;rounded=0;orthogonalLoop=1;jettySize=auto;html=1;" edge="1" parent="1" source="4hZw_1Td1rZY4-D2AG_E-23" target="4hZw_1Td1rZY4-D2AG_E-22">
          <mxGeometry relative="1" as="geometry" />
        </mxCell>
        <mxCell id="4hZw_1Td1rZY4-D2AG_E-23" value="UI WEB APP" style="whiteSpace=wrap;html=1;aspect=fixed;" vertex="1" parent="1">
          <mxGeometry x="255" y="768" width="80" height="80" as="geometry" />
        </mxCell>
        <mxCell id="4hZw_1Td1rZY4-D2AG_E-26" value="" style="edgeStyle=orthogonalEdgeStyle;rounded=0;orthogonalLoop=1;jettySize=auto;html=1;" edge="1" parent="1" source="4hZw_1Td1rZY4-D2AG_E-25" target="4hZw_1Td1rZY4-D2AG_E-22">
          <mxGeometry relative="1" as="geometry" />
        </mxCell>
        <mxCell id="4hZw_1Td1rZY4-D2AG_E-25" value="AWS CLI" style="whiteSpace=wrap;html=1;aspect=fixed;" vertex="1" parent="1">
          <mxGeometry x="385" y="884" width="80" height="80" as="geometry" />
        </mxCell>
        <mxCell id="4hZw_1Td1rZY4-D2AG_E-28" value="" style="edgeStyle=orthogonalEdgeStyle;rounded=0;orthogonalLoop=1;jettySize=auto;html=1;" edge="1" parent="1" source="4hZw_1Td1rZY4-D2AG_E-27" target="4hZw_1Td1rZY4-D2AG_E-22">
          <mxGeometry relative="1" as="geometry" />
        </mxCell>
        <mxCell id="4hZw_1Td1rZY4-D2AG_E-27" value="AWS SDK" style="whiteSpace=wrap;html=1;aspect=fixed;" vertex="1" parent="1">
          <mxGeometry x="515" y="768" width="80" height="80" as="geometry" />
        </mxCell>
      </root>
    </mxGraphModel>
  </diagram>
  <diagram id="rcq1nVg9ugXwE1U5UhsU" name="VPC">
    <mxGraphModel dx="1665" dy="743" grid="0" gridSize="10" guides="1" tooltips="1" connect="1" arrows="1" fold="1" page="1" pageScale="1" pageWidth="850" pageHeight="1100" math="0" shadow="0">
      <root>
        <mxCell id="0" />
        <mxCell id="1" parent="0" />
        <mxCell id="sYQugy-HMlxzH5fkz9-b-11" value="" style="rounded=0;whiteSpace=wrap;html=1;" vertex="1" parent="1">
          <mxGeometry x="20" y="832" width="642" height="212" as="geometry" />
        </mxCell>
        <mxCell id="aAt6kjtfCRqdnLwSskfU-1" value="" style="whiteSpace=wrap;html=1;aspect=fixed;" parent="1" vertex="1">
          <mxGeometry x="39" y="94" width="253" height="253" as="geometry" />
        </mxCell>
        <mxCell id="aAt6kjtfCRqdnLwSskfU-2" value="VPC" style="text;html=1;align=center;verticalAlign=middle;resizable=0;points=[];autosize=1;strokeColor=none;fillColor=none;" parent="1" vertex="1">
          <mxGeometry x="39" y="66" width="43" height="26" as="geometry" />
        </mxCell>
        <mxCell id="aAt6kjtfCRqdnLwSskfU-3" value="Subnets" style="rounded=0;whiteSpace=wrap;html=1;" parent="1" vertex="1">
          <mxGeometry x="62" y="124" width="120" height="30" as="geometry" />
        </mxCell>
        <mxCell id="aAt6kjtfCRqdnLwSskfU-5" value="Routing Tables" style="rounded=0;whiteSpace=wrap;html=1;" parent="1" vertex="1">
          <mxGeometry x="62" y="175" width="120" height="30" as="geometry" />
        </mxCell>
        <mxCell id="aAt6kjtfCRqdnLwSskfU-6" value="Firewalls" style="rounded=0;whiteSpace=wrap;html=1;" parent="1" vertex="1">
          <mxGeometry x="62" y="232" width="120" height="30" as="geometry" />
        </mxCell>
        <mxCell id="aAt6kjtfCRqdnLwSskfU-7" value="Gateway" style="rounded=0;whiteSpace=wrap;html=1;" parent="1" vertex="1">
          <mxGeometry x="62" y="289" width="120" height="30" as="geometry" />
        </mxCell>
        <mxCell id="aAt6kjtfCRqdnLwSskfU-8" value="1. VPC has a range of IP addresses to it called the CIDR block&lt;div&gt;2. CIDR block size can be anywhere from /16 to /28&lt;/div&gt;&lt;div&gt;3. Suppose we create a VPC wiith CIDR 192.168.0.0/16&lt;div&gt;i.e. we have a IP range from 192.168.0.0 -- 192.168.255.255 (65,536)&lt;/div&gt;&lt;/div&gt;&lt;div&gt;4. VPC Isolates computing resources from other&amp;nbsp;&lt;/div&gt;&lt;div&gt;computing resources available in cloud&lt;/div&gt;&lt;div&gt;5. VPC gives full control network over cloud&lt;/div&gt;&lt;div&gt;6. Every VPC has a router which is responsible for routing traffic&lt;/div&gt;&lt;div&gt;&amp;nbsp;between subnets&lt;/div&gt;&lt;div&gt;7. Each VPC has one default route table&lt;/div&gt;&lt;div&gt;&lt;br&gt;&lt;/div&gt;" style="text;html=1;align=left;verticalAlign=middle;resizable=0;points=[];autosize=1;strokeColor=none;fillColor=none;" parent="1" vertex="1">
          <mxGeometry x="411" y="55" width="387" height="170" as="geometry" />
        </mxCell>
        <mxCell id="OAqx_-BDzPpjmapt43DE-1" value="Route 53" style="whiteSpace=wrap;html=1;aspect=fixed;" parent="1" vertex="1">
          <mxGeometry x="97" y="450" width="80" height="80" as="geometry" />
        </mxCell>
        <mxCell id="OAqx_-BDzPpjmapt43DE-2" value="AWS Managed DNS Service" style="text;html=1;align=center;verticalAlign=middle;resizable=0;points=[];autosize=1;strokeColor=none;fillColor=none;" parent="1" vertex="1">
          <mxGeometry x="196" y="453" width="170" height="26" as="geometry" />
        </mxCell>
        <mxCell id="lzV9Ri6iOApbfyQUq7PA-1" value="CloudFormation" style="whiteSpace=wrap;html=1;aspect=fixed;" parent="1" vertex="1">
          <mxGeometry x="119" y="603" width="105" height="105" as="geometry" />
        </mxCell>
        <mxCell id="lzV9Ri6iOApbfyQUq7PA-2" value="Used for AWS Infra" style="text;html=1;align=center;verticalAlign=middle;resizable=0;points=[];autosize=1;strokeColor=none;fillColor=none;" parent="1" vertex="1">
          <mxGeometry x="249" y="603" width="120" height="26" as="geometry" />
        </mxCell>
        <mxCell id="lzV9Ri6iOApbfyQUq7PA-3" value="Stack is a Collection of aws resources" style="text;html=1;align=center;verticalAlign=middle;resizable=0;points=[];autosize=1;strokeColor=none;fillColor=none;" parent="1" vertex="1">
          <mxGeometry x="249" y="643" width="220" height="26" as="geometry" />
        </mxCell>
        <mxCell id="lzV9Ri6iOApbfyQUq7PA-4" value="Stack Policy Provides additional layer&lt;div&gt;&amp;nbsp;of protection to critical resources&lt;/div&gt;" style="text;html=1;align=center;verticalAlign=middle;resizable=0;points=[];autosize=1;strokeColor=none;fillColor=none;" parent="1" vertex="1">
          <mxGeometry x="250.5" y="683" width="217" height="41" as="geometry" />
        </mxCell>
        <mxCell id="sYQugy-HMlxzH5fkz9-b-7" value="" style="edgeStyle=orthogonalEdgeStyle;rounded=0;orthogonalLoop=1;jettySize=auto;html=1;" edge="1" parent="1" source="sYQugy-HMlxzH5fkz9-b-1" target="sYQugy-HMlxzH5fkz9-b-5">
          <mxGeometry relative="1" as="geometry" />
        </mxCell>
        <mxCell id="sYQugy-HMlxzH5fkz9-b-1" value="VPC-A" style="whiteSpace=wrap;html=1;aspect=fixed;" vertex="1" parent="1">
          <mxGeometry x="53" y="879.25" width="111" height="111" as="geometry" />
        </mxCell>
        <mxCell id="sYQugy-HMlxzH5fkz9-b-2" value="VPC-B" style="whiteSpace=wrap;html=1;aspect=fixed;" vertex="1" parent="1">
          <mxGeometry x="512" y="879.25" width="111" height="111" as="geometry" />
        </mxCell>
        <mxCell id="sYQugy-HMlxzH5fkz9-b-9" value="" style="edgeStyle=orthogonalEdgeStyle;rounded=0;orthogonalLoop=1;jettySize=auto;html=1;" edge="1" parent="1" source="sYQugy-HMlxzH5fkz9-b-4" target="sYQugy-HMlxzH5fkz9-b-6">
          <mxGeometry relative="1" as="geometry" />
        </mxCell>
        <mxCell id="sYQugy-HMlxzH5fkz9-b-4" value="VPC Peering" style="rounded=0;whiteSpace=wrap;html=1;" vertex="1" parent="1">
          <mxGeometry x="295" y="919" width="92" height="31.5" as="geometry" />
        </mxCell>
        <mxCell id="sYQugy-HMlxzH5fkz9-b-8" value="" style="edgeStyle=orthogonalEdgeStyle;rounded=0;orthogonalLoop=1;jettySize=auto;html=1;" edge="1" parent="1" source="sYQugy-HMlxzH5fkz9-b-5" target="sYQugy-HMlxzH5fkz9-b-4">
          <mxGeometry relative="1" as="geometry" />
        </mxCell>
        <mxCell id="sYQugy-HMlxzH5fkz9-b-5" value="Route&lt;div&gt;Table&lt;/div&gt;" style="rounded=0;whiteSpace=wrap;html=1;" vertex="1" parent="1">
          <mxGeometry x="199" y="918.37" width="61" height="32.75" as="geometry" />
        </mxCell>
        <mxCell id="sYQugy-HMlxzH5fkz9-b-10" value="" style="edgeStyle=orthogonalEdgeStyle;rounded=0;orthogonalLoop=1;jettySize=auto;html=1;" edge="1" parent="1" source="sYQugy-HMlxzH5fkz9-b-6" target="sYQugy-HMlxzH5fkz9-b-2">
          <mxGeometry relative="1" as="geometry" />
        </mxCell>
        <mxCell id="sYQugy-HMlxzH5fkz9-b-6" value="Route&lt;div&gt;Table&lt;/div&gt;" style="rounded=0;whiteSpace=wrap;html=1;" vertex="1" parent="1">
          <mxGeometry x="419" y="919" width="61" height="32.75" as="geometry" />
        </mxCell>
        <mxCell id="sYQugy-HMlxzH5fkz9-b-12" value="&lt;font style=&quot;font-size: 14px;&quot;&gt;VPC Peering&lt;/font&gt;" style="text;html=1;align=center;verticalAlign=middle;resizable=0;points=[];autosize=1;strokeColor=none;fillColor=none;" vertex="1" parent="1">
          <mxGeometry x="20" y="832" width="99" height="29" as="geometry" />
        </mxCell>
      </root>
    </mxGraphModel>
  </diagram>
  <diagram id="X5NaNamdVSjCmGynHZA5" name="subnet">
    <mxGraphModel dx="1665" dy="743" grid="1" gridSize="10" guides="1" tooltips="1" connect="1" arrows="1" fold="1" page="1" pageScale="1" pageWidth="850" pageHeight="1100" math="0" shadow="0">
      <root>
        <mxCell id="0" />
        <mxCell id="1" parent="0" />
        <mxCell id="RHelibkMx_G6hN5elqLY-1" value="" style="whiteSpace=wrap;html=1;aspect=fixed;" parent="1" vertex="1">
          <mxGeometry x="60" y="40" width="210" height="210" as="geometry" />
        </mxCell>
        <mxCell id="RHelibkMx_G6hN5elqLY-2" value="Region" style="text;html=1;align=center;verticalAlign=middle;resizable=0;points=[];autosize=1;strokeColor=none;fillColor=none;" parent="1" vertex="1">
          <mxGeometry x="60" y="10" width="60" height="30" as="geometry" />
        </mxCell>
        <mxCell id="RHelibkMx_G6hN5elqLY-3" value="" style="whiteSpace=wrap;html=1;aspect=fixed;" parent="1" vertex="1">
          <mxGeometry x="80" y="60" width="170" height="170" as="geometry" />
        </mxCell>
        <mxCell id="RHelibkMx_G6hN5elqLY-4" value="VPC" style="text;html=1;align=center;verticalAlign=middle;resizable=0;points=[];autosize=1;strokeColor=none;fillColor=none;" parent="1" vertex="1">
          <mxGeometry x="80" y="60" width="50" height="30" as="geometry" />
        </mxCell>
        <mxCell id="RHelibkMx_G6hN5elqLY-5" value="" style="whiteSpace=wrap;html=1;aspect=fixed;" parent="1" vertex="1">
          <mxGeometry x="100" y="90" width="130" height="130" as="geometry" />
        </mxCell>
        <mxCell id="RHelibkMx_G6hN5elqLY-6" value="AZ" style="text;html=1;align=center;verticalAlign=middle;resizable=0;points=[];autosize=1;strokeColor=none;fillColor=none;" parent="1" vertex="1">
          <mxGeometry x="100" y="90" width="40" height="30" as="geometry" />
        </mxCell>
        <mxCell id="RHelibkMx_G6hN5elqLY-7" value="&lt;div&gt;Public&lt;/div&gt;&lt;div&gt;Subnet&lt;/div&gt;" style="whiteSpace=wrap;html=1;aspect=fixed;" parent="1" vertex="1">
          <mxGeometry x="110" y="120" width="50" height="50" as="geometry" />
        </mxCell>
        <mxCell id="RHelibkMx_G6hN5elqLY-8" value="Private&lt;div&gt;Subnet&lt;/div&gt;" style="whiteSpace=wrap;html=1;aspect=fixed;" parent="1" vertex="1">
          <mxGeometry x="170" y="160" width="50" height="50" as="geometry" />
        </mxCell>
        <mxCell id="RHelibkMx_G6hN5elqLY-9" value="Subnets are group of IP address within VPC" style="text;html=1;align=center;verticalAlign=middle;resizable=0;points=[];autosize=1;strokeColor=none;fillColor=none;" parent="1" vertex="1">
          <mxGeometry x="350" y="30" width="260" height="30" as="geometry" />
        </mxCell>
        <mxCell id="RHelibkMx_G6hN5elqLY-10" value="Subnets Resides withing a AZ" style="text;html=1;align=left;verticalAlign=middle;resizable=0;points=[];autosize=1;strokeColor=none;fillColor=none;" parent="1" vertex="1">
          <mxGeometry x="360" y="60" width="180" height="30" as="geometry" />
        </mxCell>
        <mxCell id="eSlqM3PhorkzseGqioAz-1" value="The Reserved IP Address within subnet&lt;div&gt;1. (10.0) for NETWORK ADDRESS&lt;/div&gt;&lt;div&gt;2. (10.1) VPC ROUTER&lt;/div&gt;&lt;div&gt;3. (10.2) DNS&lt;/div&gt;&lt;div&gt;4. (10.3) FOR FUTURE USE&lt;br&gt;5. (255.255) FOR BROADCAST ADDRESS&lt;/div&gt;" style="text;html=1;align=left;verticalAlign=middle;resizable=0;points=[];autosize=1;strokeColor=none;fillColor=none;" parent="1" vertex="1">
          <mxGeometry x="360" y="90" width="260" height="100" as="geometry" />
        </mxCell>
        <mxCell id="eSlqM3PhorkzseGqioAz-2" value="Subnets can be configured to be a IPV6 only No IPv4 address" style="text;html=1;align=left;verticalAlign=middle;resizable=0;points=[];autosize=1;strokeColor=none;fillColor=none;" parent="1" vertex="1">
          <mxGeometry x="360" y="200" width="350" height="30" as="geometry" />
        </mxCell>
        <mxCell id="K6zUxYtTTQv1zHPpKoc4-1" value="Route Table is a set of rules the router uses to formard network traffic" style="text;html=1;align=center;verticalAlign=middle;resizable=0;points=[];autosize=1;strokeColor=none;fillColor=none;" parent="1" vertex="1">
          <mxGeometry x="350" y="240" width="390" height="30" as="geometry" />
        </mxCell>
      </root>
    </mxGraphModel>
  </diagram>
  <diagram id="c0_eCoTucSBD7oH6ewM4" name="IGW">
    <mxGraphModel dx="1665" dy="743" grid="1" gridSize="10" guides="1" tooltips="1" connect="1" arrows="1" fold="1" page="1" pageScale="1" pageWidth="850" pageHeight="1100" math="0" shadow="0">
      <root>
        <mxCell id="0" />
        <mxCell id="1" parent="0" />
        <mxCell id="yiqDbtbRdCsOA3ojbw8D-1" value="" style="whiteSpace=wrap;html=1;aspect=fixed;" vertex="1" parent="1">
          <mxGeometry x="40" y="40" width="210" height="210" as="geometry" />
        </mxCell>
        <mxCell id="yiqDbtbRdCsOA3ojbw8D-2" value="" style="whiteSpace=wrap;html=1;aspect=fixed;" vertex="1" parent="1">
          <mxGeometry x="60" y="60" width="180" height="180" as="geometry" />
        </mxCell>
        <mxCell id="yiqDbtbRdCsOA3ojbw8D-3" value="VPC" style="text;html=1;align=center;verticalAlign=middle;resizable=0;points=[];autosize=1;strokeColor=none;fillColor=none;" vertex="1" parent="1">
          <mxGeometry x="60" y="60" width="50" height="30" as="geometry" />
        </mxCell>
        <mxCell id="yiqDbtbRdCsOA3ojbw8D-4" value="" style="whiteSpace=wrap;html=1;aspect=fixed;" vertex="1" parent="1">
          <mxGeometry x="80" y="90" width="130" height="130" as="geometry" />
        </mxCell>
        <mxCell id="yiqDbtbRdCsOA3ojbw8D-5" value="AZ" style="text;html=1;align=center;verticalAlign=middle;resizable=0;points=[];autosize=1;strokeColor=none;fillColor=none;" vertex="1" parent="1">
          <mxGeometry x="80" y="90" width="40" height="30" as="geometry" />
        </mxCell>
        <mxCell id="yiqDbtbRdCsOA3ojbw8D-6" value="&lt;div&gt;Public&lt;/div&gt;&lt;div&gt;Subnet&lt;/div&gt;" style="whiteSpace=wrap;html=1;aspect=fixed;" vertex="1" parent="1">
          <mxGeometry x="90" y="120" width="50" height="50" as="geometry" />
        </mxCell>
        <mxCell id="yiqDbtbRdCsOA3ojbw8D-7" value="Private&lt;div&gt;Subnet&lt;/div&gt;" style="whiteSpace=wrap;html=1;aspect=fixed;" vertex="1" parent="1">
          <mxGeometry x="150" y="160" width="50" height="50" as="geometry" />
        </mxCell>
        <mxCell id="yiqDbtbRdCsOA3ojbw8D-8" value="&lt;font style=&quot;font-size: 18px;&quot;&gt;1. Create A IGW&lt;/font&gt;&lt;div&gt;&lt;font size=&quot;3&quot;&gt;2. Attach IGW tp VPC&lt;/font&gt;&lt;/div&gt;&lt;div&gt;&lt;font size=&quot;3&quot;&gt;3. Create Custom route Table&lt;/font&gt;&lt;/div&gt;&lt;div&gt;&lt;font size=&quot;3&quot;&gt;4.Configure Default route&lt;/font&gt;&lt;/div&gt;&lt;div&gt;&lt;font size=&quot;3&quot;&gt;4. Associate subnet with route table&lt;/font&gt;&lt;/div&gt;" style="text;html=1;align=left;verticalAlign=middle;resizable=0;points=[];autosize=1;strokeColor=none;fillColor=none;" vertex="1" parent="1">
          <mxGeometry x="540" y="60" width="280" height="110" as="geometry" />
        </mxCell>
        <mxCell id="yiqDbtbRdCsOA3ojbw8D-10" style="edgeStyle=orthogonalEdgeStyle;rounded=0;orthogonalLoop=1;jettySize=auto;html=1;entryX=1;entryY=0.25;entryDx=0;entryDy=0;" edge="1" parent="1" source="yiqDbtbRdCsOA3ojbw8D-9" target="yiqDbtbRdCsOA3ojbw8D-6">
          <mxGeometry relative="1" as="geometry">
            <Array as="points">
              <mxPoint x="230" y="80" />
              <mxPoint x="230" y="133" />
            </Array>
          </mxGeometry>
        </mxCell>
        <mxCell id="yiqDbtbRdCsOA3ojbw8D-9" value="&lt;font style=&quot;font-size: 18px;&quot;&gt;Routing Table&lt;/font&gt;" style="whiteSpace=wrap;html=1;aspect=fixed;" vertex="1" parent="1">
          <mxGeometry x="310" y="40" width="80" height="80" as="geometry" />
        </mxCell>
        <mxCell id="yiqDbtbRdCsOA3ojbw8D-11" value="&lt;font style=&quot;font-size: 18px;&quot;&gt;IGW&lt;/font&gt;" style="whiteSpace=wrap;html=1;aspect=fixed;" vertex="1" parent="1">
          <mxGeometry x="230" y="140" width="50" height="50" as="geometry" />
        </mxCell>
        <mxCell id="yiqDbtbRdCsOA3ojbw8D-13" value="" style="whiteSpace=wrap;html=1;aspect=fixed;" vertex="1" parent="1">
          <mxGeometry x="45" y="320" width="210" height="210" as="geometry" />
        </mxCell>
        <mxCell id="yiqDbtbRdCsOA3ojbw8D-14" value="" style="whiteSpace=wrap;html=1;aspect=fixed;" vertex="1" parent="1">
          <mxGeometry x="65" y="350" width="160" height="160" as="geometry" />
        </mxCell>
        <mxCell id="yiqDbtbRdCsOA3ojbw8D-15" value="Public Subnet" style="text;html=1;align=center;verticalAlign=middle;resizable=0;points=[];autosize=1;strokeColor=none;fillColor=none;" vertex="1" parent="1">
          <mxGeometry x="65" y="350" width="100" height="30" as="geometry" />
        </mxCell>
        <mxCell id="yiqDbtbRdCsOA3ojbw8D-17" value="Private IP&lt;div&gt;192.163.1.1&lt;/div&gt;" style="rounded=0;whiteSpace=wrap;html=1;" vertex="1" parent="1">
          <mxGeometry x="65" y="470" width="80" height="30" as="geometry" />
        </mxCell>
        <mxCell id="yiqDbtbRdCsOA3ojbw8D-22" style="edgeStyle=orthogonalEdgeStyle;rounded=0;orthogonalLoop=1;jettySize=auto;html=1;entryX=1;entryY=0.5;entryDx=0;entryDy=0;" edge="1" parent="1" source="yiqDbtbRdCsOA3ojbw8D-18" target="yiqDbtbRdCsOA3ojbw8D-17">
          <mxGeometry relative="1" as="geometry" />
        </mxCell>
        <mxCell id="yiqDbtbRdCsOA3ojbw8D-18" value="Public IP&lt;div&gt;1.1.1.1&lt;/div&gt;" style="rounded=0;whiteSpace=wrap;html=1;" vertex="1" parent="1">
          <mxGeometry x="125" y="400" width="80" height="40" as="geometry" />
        </mxCell>
        <mxCell id="yiqDbtbRdCsOA3ojbw8D-19" value="VPC" style="text;html=1;align=center;verticalAlign=middle;resizable=0;points=[];autosize=1;strokeColor=none;fillColor=none;" vertex="1" parent="1">
          <mxGeometry x="45" y="320" width="50" height="30" as="geometry" />
        </mxCell>
        <mxCell id="yiqDbtbRdCsOA3ojbw8D-21" style="edgeStyle=orthogonalEdgeStyle;rounded=0;orthogonalLoop=1;jettySize=auto;html=1;entryX=1;entryY=0.5;entryDx=0;entryDy=0;" edge="1" parent="1" source="yiqDbtbRdCsOA3ojbw8D-20" target="yiqDbtbRdCsOA3ojbw8D-18">
          <mxGeometry relative="1" as="geometry" />
        </mxCell>
        <mxCell id="yiqDbtbRdCsOA3ojbw8D-20" value="&lt;font style=&quot;font-size: 18px;&quot;&gt;USER&lt;/font&gt;" style="whiteSpace=wrap;html=1;aspect=fixed;" vertex="1" parent="1">
          <mxGeometry x="310" y="380" width="80" height="80" as="geometry" />
        </mxCell>
        <mxCell id="yiqDbtbRdCsOA3ojbw8D-23" value="&lt;font style=&quot;font-size: 18px;&quot;&gt;1. Enable Resources to connect to internet&lt;/font&gt;&lt;div&gt;&lt;font size=&quot;3&quot;&gt;2. IGW attach to VPC &amp;amp; region resilient&lt;/font&gt;&lt;/div&gt;&lt;div&gt;&lt;font size=&quot;3&quot;&gt;3. VPC can only have max 1 IGW&amp;nbsp;&lt;/font&gt;&lt;/div&gt;&lt;div&gt;&lt;font size=&quot;3&quot;&gt;4 an IGW can only be attached to max 1 VPC&lt;/font&gt;&lt;/div&gt;&lt;div&gt;&lt;font size=&quot;3&quot;&gt;5. A Subnet Made public once a default route points&lt;/font&gt;&lt;/div&gt;&lt;div&gt;&lt;font size=&quot;3&quot;&gt;&amp;nbsp;to IGW in VPC&lt;/font&gt;&lt;/div&gt;" style="text;html=1;align=left;verticalAlign=middle;resizable=0;points=[];autosize=1;strokeColor=none;fillColor=none;" vertex="1" parent="1">
          <mxGeometry x="420" y="310" width="390" height="130" as="geometry" />
        </mxCell>
        <mxCell id="yiqDbtbRdCsOA3ojbw8D-24" value="" style="whiteSpace=wrap;html=1;aspect=fixed;" vertex="1" parent="1">
          <mxGeometry x="50" y="600" width="380" height="380" as="geometry" />
        </mxCell>
        <mxCell id="yiqDbtbRdCsOA3ojbw8D-25" value="" style="whiteSpace=wrap;html=1;aspect=fixed;" vertex="1" parent="1">
          <mxGeometry x="65" y="630" width="340" height="340" as="geometry" />
        </mxCell>
        <mxCell id="yiqDbtbRdCsOA3ojbw8D-26" value="AZ" style="text;html=1;align=center;verticalAlign=middle;resizable=0;points=[];autosize=1;strokeColor=none;fillColor=none;" vertex="1" parent="1">
          <mxGeometry x="65" y="630" width="40" height="30" as="geometry" />
        </mxCell>
        <mxCell id="yiqDbtbRdCsOA3ojbw8D-27" value="VPC" style="text;html=1;align=center;verticalAlign=middle;resizable=0;points=[];autosize=1;strokeColor=none;fillColor=none;" vertex="1" parent="1">
          <mxGeometry x="50" y="600" width="50" height="30" as="geometry" />
        </mxCell>
        <mxCell id="yiqDbtbRdCsOA3ojbw8D-28" value="Public Subnet" style="rounded=0;whiteSpace=wrap;html=1;" vertex="1" parent="1">
          <mxGeometry x="95" y="710" width="235" height="100" as="geometry" />
        </mxCell>
        <mxCell id="yiqDbtbRdCsOA3ojbw8D-36" style="edgeStyle=orthogonalEdgeStyle;rounded=0;orthogonalLoop=1;jettySize=auto;html=1;entryX=0.5;entryY=1;entryDx=0;entryDy=0;" edge="1" parent="1" source="yiqDbtbRdCsOA3ojbw8D-30" target="yiqDbtbRdCsOA3ojbw8D-31">
          <mxGeometry relative="1" as="geometry">
            <Array as="points">
              <mxPoint x="295" y="890" />
            </Array>
          </mxGeometry>
        </mxCell>
        <mxCell id="yiqDbtbRdCsOA3ojbw8D-30" value="Private Subnet" style="rounded=0;whiteSpace=wrap;html=1;" vertex="1" parent="1">
          <mxGeometry x="105" y="860" width="120" height="60" as="geometry" />
        </mxCell>
        <mxCell id="yiqDbtbRdCsOA3ojbw8D-35" style="edgeStyle=orthogonalEdgeStyle;rounded=0;orthogonalLoop=1;jettySize=auto;html=1;entryX=0.5;entryY=0;entryDx=0;entryDy=0;" edge="1" parent="1" source="yiqDbtbRdCsOA3ojbw8D-31" target="yiqDbtbRdCsOA3ojbw8D-30">
          <mxGeometry relative="1" as="geometry">
            <Array as="points">
              <mxPoint x="295" y="790" />
              <mxPoint x="165" y="790" />
            </Array>
          </mxGeometry>
        </mxCell>
        <mxCell id="yiqDbtbRdCsOA3ojbw8D-37" style="edgeStyle=orthogonalEdgeStyle;rounded=0;orthogonalLoop=1;jettySize=auto;html=1;entryX=0;entryY=0.5;entryDx=0;entryDy=0;" edge="1" parent="1" source="yiqDbtbRdCsOA3ojbw8D-31" target="yiqDbtbRdCsOA3ojbw8D-33">
          <mxGeometry relative="1" as="geometry" />
        </mxCell>
        <mxCell id="yiqDbtbRdCsOA3ojbw8D-31" value="&lt;font style=&quot;font-size: 14px;&quot;&gt;NAT&lt;/font&gt;" style="whiteSpace=wrap;html=1;aspect=fixed;" vertex="1" parent="1">
          <mxGeometry x="270" y="725" width="50" height="50" as="geometry" />
        </mxCell>
        <mxCell id="yiqDbtbRdCsOA3ojbw8D-34" value="" style="edgeStyle=orthogonalEdgeStyle;rounded=0;orthogonalLoop=1;jettySize=auto;html=1;" edge="1" parent="1" source="yiqDbtbRdCsOA3ojbw8D-33" target="yiqDbtbRdCsOA3ojbw8D-31">
          <mxGeometry relative="1" as="geometry" />
        </mxCell>
        <mxCell id="yiqDbtbRdCsOA3ojbw8D-40" style="edgeStyle=orthogonalEdgeStyle;rounded=0;orthogonalLoop=1;jettySize=auto;html=1;entryX=0;entryY=0.5;entryDx=0;entryDy=0;" edge="1" parent="1" source="yiqDbtbRdCsOA3ojbw8D-33" target="yiqDbtbRdCsOA3ojbw8D-38">
          <mxGeometry relative="1" as="geometry" />
        </mxCell>
        <mxCell id="yiqDbtbRdCsOA3ojbw8D-33" value="&lt;font style=&quot;font-size: 14px;&quot;&gt;IGW&lt;/font&gt;" style="whiteSpace=wrap;html=1;aspect=fixed;" vertex="1" parent="1">
          <mxGeometry x="390" y="725" width="50" height="50" as="geometry" />
        </mxCell>
        <mxCell id="yiqDbtbRdCsOA3ojbw8D-39" style="edgeStyle=orthogonalEdgeStyle;rounded=0;orthogonalLoop=1;jettySize=auto;html=1;entryX=1;entryY=0.5;entryDx=0;entryDy=0;" edge="1" parent="1" source="yiqDbtbRdCsOA3ojbw8D-38" target="yiqDbtbRdCsOA3ojbw8D-33">
          <mxGeometry relative="1" as="geometry" />
        </mxCell>
        <mxCell id="yiqDbtbRdCsOA3ojbw8D-38" value="INTERNET" style="ellipse;whiteSpace=wrap;html=1;" vertex="1" parent="1">
          <mxGeometry x="575" y="710" width="80" height="80" as="geometry" />
        </mxCell>
        <mxCell id="yiqDbtbRdCsOA3ojbw8D-43" style="edgeStyle=orthogonalEdgeStyle;rounded=0;orthogonalLoop=1;jettySize=auto;html=1;entryX=0.5;entryY=1;entryDx=0;entryDy=0;" edge="1" parent="1" source="yiqDbtbRdCsOA3ojbw8D-41" target="yiqDbtbRdCsOA3ojbw8D-30">
          <mxGeometry relative="1" as="geometry" />
        </mxCell>
        <mxCell id="yiqDbtbRdCsOA3ojbw8D-41" value="ROUTING&lt;br&gt;TABLE" style="whiteSpace=wrap;html=1;" vertex="1" parent="1">
          <mxGeometry x="310" y="880" width="80" height="60" as="geometry" />
        </mxCell>
        <mxCell id="yiqDbtbRdCsOA3ojbw8D-44" style="edgeStyle=orthogonalEdgeStyle;rounded=0;orthogonalLoop=1;jettySize=auto;html=1;entryX=0.5;entryY=0;entryDx=0;entryDy=0;" edge="1" parent="1" source="yiqDbtbRdCsOA3ojbw8D-42" target="yiqDbtbRdCsOA3ojbw8D-28">
          <mxGeometry relative="1" as="geometry">
            <Array as="points">
              <mxPoint x="213" y="690" />
            </Array>
          </mxGeometry>
        </mxCell>
        <mxCell id="yiqDbtbRdCsOA3ojbw8D-42" value="ROUTING&lt;br&gt;TABLE" style="whiteSpace=wrap;html=1;" vertex="1" parent="1">
          <mxGeometry x="202.5" y="640" width="65" height="50" as="geometry" />
        </mxCell>
      </root>
    </mxGraphModel>
  </diagram>
  <diagram id="SJO-DdUfppz3vF6bWRL2" name="Security NACL">
    <mxGraphModel dx="1665" dy="743" grid="1" gridSize="10" guides="1" tooltips="1" connect="1" arrows="1" fold="1" page="1" pageScale="1" pageWidth="850" pageHeight="1100" math="0" shadow="0">
      <root>
        <mxCell id="0" />
        <mxCell id="1" parent="0" />
        <mxCell id="s928N47jIqzBURDifpqi-17" value="" style="group" parent="1" vertex="1" connectable="0">
          <mxGeometry x="50" y="110" width="380" height="380" as="geometry" />
        </mxCell>
        <mxCell id="s928N47jIqzBURDifpqi-1" value="" style="whiteSpace=wrap;html=1;aspect=fixed;" parent="s928N47jIqzBURDifpqi-17" vertex="1">
          <mxGeometry width="380" height="380" as="geometry" />
        </mxCell>
        <mxCell id="s928N47jIqzBURDifpqi-2" value="&lt;font style=&quot;font-size: 14px;&quot;&gt;VPC&lt;/font&gt;" style="text;html=1;align=center;verticalAlign=middle;resizable=0;points=[];autosize=1;strokeColor=none;fillColor=none;" parent="s928N47jIqzBURDifpqi-17" vertex="1">
          <mxGeometry width="50" height="30" as="geometry" />
        </mxCell>
        <mxCell id="s928N47jIqzBURDifpqi-3" value="" style="rounded=0;whiteSpace=wrap;html=1;" parent="s928N47jIqzBURDifpqi-17" vertex="1">
          <mxGeometry x="130" y="90" width="200" height="90" as="geometry" />
        </mxCell>
        <mxCell id="s928N47jIqzBURDifpqi-4" value="Public Subnet" style="text;html=1;align=center;verticalAlign=middle;resizable=0;points=[];autosize=1;strokeColor=none;fillColor=none;" parent="s928N47jIqzBURDifpqi-17" vertex="1">
          <mxGeometry x="130" y="90" width="100" height="30" as="geometry" />
        </mxCell>
        <mxCell id="s928N47jIqzBURDifpqi-5" value="EC2" style="whiteSpace=wrap;html=1;aspect=fixed;" parent="s928N47jIqzBURDifpqi-17" vertex="1">
          <mxGeometry x="155" y="120" width="50" height="50" as="geometry" />
        </mxCell>
        <mxCell id="s928N47jIqzBURDifpqi-7" value="" style="edgeStyle=orthogonalEdgeStyle;rounded=0;orthogonalLoop=1;jettySize=auto;html=1;" parent="s928N47jIqzBURDifpqi-17" source="s928N47jIqzBURDifpqi-6" target="s928N47jIqzBURDifpqi-5" edge="1">
          <mxGeometry relative="1" as="geometry" />
        </mxCell>
        <mxCell id="s928N47jIqzBURDifpqi-6" value="Security&lt;div&gt;Group&lt;/div&gt;" style="whiteSpace=wrap;html=1;aspect=fixed;" parent="s928N47jIqzBURDifpqi-17" vertex="1">
          <mxGeometry x="250" y="120" width="50" height="50" as="geometry" />
        </mxCell>
        <mxCell id="s928N47jIqzBURDifpqi-9" value="" style="rounded=0;whiteSpace=wrap;html=1;" parent="s928N47jIqzBURDifpqi-17" vertex="1">
          <mxGeometry x="130" y="230" width="200" height="90" as="geometry" />
        </mxCell>
        <mxCell id="s928N47jIqzBURDifpqi-10" value="Private Subnet" style="text;html=1;align=center;verticalAlign=middle;resizable=0;points=[];autosize=1;strokeColor=none;fillColor=none;" parent="s928N47jIqzBURDifpqi-17" vertex="1">
          <mxGeometry x="130" y="230" width="100" height="30" as="geometry" />
        </mxCell>
        <mxCell id="s928N47jIqzBURDifpqi-11" value="EC2" style="whiteSpace=wrap;html=1;aspect=fixed;" parent="s928N47jIqzBURDifpqi-17" vertex="1">
          <mxGeometry x="155" y="260" width="50" height="50" as="geometry" />
        </mxCell>
        <mxCell id="s928N47jIqzBURDifpqi-12" value="" style="edgeStyle=orthogonalEdgeStyle;rounded=0;orthogonalLoop=1;jettySize=auto;html=1;" parent="s928N47jIqzBURDifpqi-17" source="s928N47jIqzBURDifpqi-13" target="s928N47jIqzBURDifpqi-11" edge="1">
          <mxGeometry relative="1" as="geometry" />
        </mxCell>
        <mxCell id="s928N47jIqzBURDifpqi-13" value="Security&lt;div&gt;Group&lt;/div&gt;" style="whiteSpace=wrap;html=1;aspect=fixed;" parent="s928N47jIqzBURDifpqi-17" vertex="1">
          <mxGeometry x="250" y="260" width="50" height="50" as="geometry" />
        </mxCell>
        <mxCell id="s928N47jIqzBURDifpqi-15" style="edgeStyle=orthogonalEdgeStyle;rounded=0;orthogonalLoop=1;jettySize=auto;html=1;entryX=0;entryY=0.5;entryDx=0;entryDy=0;" parent="s928N47jIqzBURDifpqi-17" source="s928N47jIqzBURDifpqi-14" target="s928N47jIqzBURDifpqi-3" edge="1">
          <mxGeometry relative="1" as="geometry">
            <Array as="points">
              <mxPoint x="55" y="135" />
            </Array>
          </mxGeometry>
        </mxCell>
        <mxCell id="s928N47jIqzBURDifpqi-16" style="edgeStyle=orthogonalEdgeStyle;rounded=0;orthogonalLoop=1;jettySize=auto;html=1;entryX=0;entryY=0.5;entryDx=0;entryDy=0;" parent="s928N47jIqzBURDifpqi-17" source="s928N47jIqzBURDifpqi-14" target="s928N47jIqzBURDifpqi-9" edge="1">
          <mxGeometry relative="1" as="geometry">
            <Array as="points">
              <mxPoint x="55" y="275" />
            </Array>
          </mxGeometry>
        </mxCell>
        <mxCell id="s928N47jIqzBURDifpqi-14" value="NACL" style="rounded=0;whiteSpace=wrap;html=1;direction=south;" parent="s928N47jIqzBURDifpqi-17" vertex="1">
          <mxGeometry x="30" y="160" width="50" height="90" as="geometry" />
        </mxCell>
        <mxCell id="s928N47jIqzBURDifpqi-18" value="&lt;font style=&quot;font-size: 18px;&quot;&gt;1. NACL monitor traffic entering &amp;amp; leaving a subnet&lt;/font&gt;&lt;div&gt;&lt;font size=&quot;3&quot;&gt;2.NACL are stateless firewall i.e. traffic must be permitted&amp;nbsp;&lt;/font&gt;&lt;/div&gt;&lt;div&gt;&lt;font size=&quot;3&quot;&gt;in both ingress &amp;amp; engress directions&lt;/font&gt;&lt;/div&gt;&lt;div&gt;&lt;font size=&quot;3&quot;&gt;3. Security Group act as personal firewalls for individual resources&lt;/font&gt;&lt;/div&gt;&lt;div&gt;&lt;font size=&quot;3&quot;&gt;4. SG are stateful only direction of request needs to be permitted&lt;/font&gt;&lt;/div&gt;&lt;div&gt;&lt;font size=&quot;3&quot;&gt;5. the response will automatically be permitted as well&lt;/font&gt;&lt;/div&gt;" style="text;html=1;align=left;verticalAlign=middle;resizable=0;points=[];autosize=1;strokeColor=none;fillColor=none;" parent="1" vertex="1">
          <mxGeometry x="460" y="110" width="490" height="130" as="geometry" />
        </mxCell>
      </root>
    </mxGraphModel>
  </diagram>
</mxfile>
